<?xml version="1.0" encoding="utf-8"?>
<svg viewBox="0 0 614.25 345" xmlns="http://www.w3.org/2000/svg">
  <defs>
    <style>.cls-1{fill:#fefefe;}.cls-2{fill:#131313;}</style>
  </defs>
  <path class="cls-2" d="M954.32,398.8c75.1-.53,125.45,59,131.75,115.05,5.14,45.73-9.15,84.57-42.8,115.82C1019.65,651.6,990.85,663.38,959,664c-78,1.53-136-59.3-137-130.83C821,458.29,881.3,398.06,954.32,398.8Zm-.19,260.14c70.43.1,128.09-55.77,128.16-127.7.08-71.49-57.3-128.28-128.79-127.93-67.93.32-130.12,57.46-126.67,133.56C829.82,602.89,883.44,658.74,954.13,658.94Z" transform="matrix(1, 0, 0, 1, -653, -367)"/>
  <path class="cls-2" d="M956,443.47c8.37,0,16.74.08,25.11,0,2.79,0,4,.74,4.87,3.69A70.29,70.29,0,0,0,1009.06,482a78.28,78.28,0,0,0,18.68,12c1.81.8,2.32,2.27,2.24,4.27a140,140,0,0,1-4.66,29,170.06,170.06,0,0,1-13.13,35.67,187,187,0,0,1-30.93,43.69A226.91,226.91,0,0,1,956,629.4c-2.48,2-4.22,1.7-6.6.1-10.75-7.26-19.88-16.25-28.26-26.08-13.7-16.08-23.4-34.35-30.66-54.12-5.44-14.8-8.48-30.12-11.26-45.54-.63-3.54-.64-7.2-1-10.8-.19-2,.33-2.94,2.6-3.61a69.74,69.74,0,0,0,33.91-22.11,60,60,0,0,0,11.43-20.8c.74-2.33,1.94-3.06,4.31-3C939,443.54,947.49,443.46,956,443.47Zm-18.92,5.2c-3.21-.08-6.34-.92-7.75,3.59-2.89,9.29-8.67,16.8-15.48,23.56-7.73,7.66-16.9,13.09-27,17.11-1.82.72-3.37,1.29-3.06,3.88a255.85,255.85,0,0,0,4.31,25.81A192,192,0,0,0,915,586.72a145.54,145.54,0,0,0,34.89,37.22c1.75,1.29,3.18,1.49,5,.09a181.23,181.23,0,0,0,40.34-42.74,191.11,191.11,0,0,0,14.79-27,169.24,169.24,0,0,0,14.37-52.78,4.06,4.06,0,0,0-2.46-4.49,89.74,89.74,0,0,1-16.09-10.82c-10.56-9.24-19.14-19.86-23.64-33.4-.84-2.51-2.09-4.33-5.54-4.26C963.47,448.82,950.27,448.67,937.07,448.67Z" transform="matrix(1, 0, 0, 1, -653, -367)"/>
  <path class="cls-2" d="M893.09,433.46c1.55-2.36.18-5.43,2.23-8,1.32,2.8,3.42,4,6.45,3.32-.37,1.7-2.77,2.27-1.91,3.94a31.06,31.06,0,0,0,4.39,6.82c1.24,1.35,4.48-.55,4.51-2.48,0-2.58.91-5.14-2.4-7-2-1.13,1.38-6.62,4.62-7.18,2.94-.5,5.69-.4,6.84,3.33a52.19,52.19,0,0,0,3.07,6.79c1,2.17.15,3.48-2,3.5a5.62,5.62,0,0,0-4.58,2c-.31.36-.91.8-1.26.72-3.61-.8-5.54.84-7.72,3.72-2,2.7-4.36.41-5.83-1.78a23.62,23.62,0,0,1-2.64-4.48C896.15,434.84,894.62,434.35,893.09,433.46Zm16.49-8.84c-1.49,2.54.63,4.47.47,6.66,2.06-.09,3.1-.88,3.16-2.73C913.28,426.32,912.2,425.08,909.58,424.62Z" transform="matrix(1, 0, 0, 1, -653, -367)"/>
  <path class="cls-2" d="M857.09,501.51a19.74,19.74,0,0,1-1.86,7.05c-6.14-3.92-12.73-5.81-19.83-7.44-.08-2.19,1.38-4.53,2.7-7.5.8,2.79,3.1,3.19,5,4.11,2.28,1.09,3.41-.15,4.21-2.16s.84-3.86-1.51-5a12.12,12.12,0,0,0-6.83-.8c.93-2.78,1.79-5.33,2.5-7.44a67.78,67.78,0,0,0,19.77,7.45,9.7,9.7,0,0,1-2.38,6.1c-2.86-1.75-5.65-4.3-9.06-2.48-1.41.75-2.64,3.58-1.65,4.88C850.16,501,853.47,501.59,857.09,501.51Z" transform="matrix(1, 0, 0, 1, -653, -367)"/>
  <path class="cls-2" d="M948.73,408.58h5.63c.28,4.39.91,8.71.69,13-.14,2.65,2.29,5.58,0,7.73-1.86,1.8-4.91.19-7.5,1.17-3.13,1.19-7.55-4.3-7.06-8.24.56-4.49,2.83-6.65,7.45-7.08C950.71,414.89,951.05,412.6,948.73,408.58Z" transform="matrix(1, 0, 0, 1, -653, -367)"/>
  <path class="cls-2" d="M964.68,631.28a5.85,5.85,0,0,1,5.79,2.63c1.39,2.14.19,3.76-1.28,5.27a1.6,1.6,0,0,0,.09,2.59c2.18,1.75,3.84,3.74,2.63,6.67-1.32,3.2-4.26,4.37-7.37,4.68-2.56.25-5.24,0-7-2.49s-.58-4.39,1-6.29a2.38,2.38,0,0,0,0-3.36c-1.22-1.57-3.6-2.92-2.3-5.3a8,8,0,0,1,7.68-4.37C964.18,631.32,964.43,631.29,964.68,631.28Zm-1.19,12.64c-2.11.35-2.16,1.92-2.11,3.42.08,2.23.65,4.55,3.18,4.8,1.93.2,3.23-1.47,3.05-3.47C967.39,646.2,965.73,644.72,963.49,643.92Zm3.59-7.63c-.63-2.1-1.1-4.85-3.48-5.16-2-.25-2.3,2.36-2.3,4a4.12,4.12,0,0,0,3.68,4.06C967,639.51,966.69,637.56,967.08,636.29Z" transform="matrix(1, 0, 0, 1, -653, -367)"/>
  <path class="cls-2" d="M884.1,458.64c1.22,2.08,2.67,3.48,5.19,3.8-1.39,2.06-2.24,4.32-4.93,4.9-3.62-6.25-8.69-11.22-14.4-15.64,1.77-2.68,4.84-4.08,6.63-6.86,1-1.56,3.09-1.78,5.11-1.08C889,446.27,890.22,453.12,884.1,458.64Zm.27-2c.62-.07.77-1.23.82-2.35.11-2.71-4.12-7.31-6.81-7.41-1.2-.05-2.2.36-2.38,1.79C875.73,450.84,881.35,456.91,884.37,456.68Z" transform="matrix(1, 0, 0, 1, -653, -367)"/>
  <path class="cls-2" d="M939.48,641.38c-1-2.67-4.36-4.55-2.34-7.82a6.09,6.09,0,0,1,5.68-2.9c-.67,1.69-2,3.13-1.12,4.89a5.83,5.83,0,0,0,3.46,3.19c2.3-2.28,2.3-2.28,1.24-7.32a4.08,4.08,0,0,1,4.15,2.4c1.05,1.94.67,2.77-2.74,6.6a3.44,3.44,0,0,0,1.2,2.24c1.77,2,2.44,4.21.74,6.45s-3.52,4-6.6,2.86c-1.55-.56-3.19.32-4.76-.52C934,649.11,934.31,645.34,939.48,641.38Zm-.15,6.14c.26,1.68,1,3.65,3.35,3.7a2.92,2.92,0,0,0,2.83-3.29c-.11-2.07-1-4.13-3.3-4.36S939.45,645.2,939.33,647.52Z" transform="matrix(1, 0, 0, 1, -653, -367)"/>
  <path class="cls-2" d="M1049.84,495.54a2.38,2.38,0,0,1-1.6-2.63c.07-1.94-.12-3.62-1.84-4.92-1.36-1-2.18-2.5-1-4.18s2.64-1.7,4.32-1.14c.82.27,1.63.57,2.29.8.43-.18.76-.21.86-.38.86-1.45.42-4.31,3-4,3.07.43,4.07,3.51,5.28,5.87a3.58,3.58,0,0,1-1.56,4.87C1056.33,491.8,1053.08,493.65,1049.84,495.54Z" transform="matrix(1, 0, 0, 1, -653, -367)"/>
  <path class="cls-2" d="M1023.65,455.53c-2.21.06-3.7-.95-4.8-3.24a22.55,22.55,0,0,0,5.13-4.7c1.58-1.71,3.47-3.17,4.23-5.91,3,2.27,5.19,4.92,8,6.9,1.94,1.4.5,3.89-1,5.58-2,2.35-4.44,4.34-6,7.31-2.1-.82-4.28-1.45-4-4.45,3.63-1,5.12-4.39,7.45-6.82a1.72,1.72,0,0,0-.41-2.36,1.81,1.81,0,0,0-2.65.35C1027.48,450.48,1024.62,452.24,1023.65,455.53Z" transform="matrix(1, 0, 0, 1, -653, -367)"/>
  <path class="cls-2" d="M1007.54,421.3c.21,1.45-.61,2.38-1.51,3.56-2.14-2-1.54-6.07-5.4-6.48a9.8,9.8,0,0,0-6,1.18c-3.23,1.81-6,9.61-4.62,13.26s5.08,5.06,10.67,3.94c-3.37,2.51-9.66,1.61-13-1.87a10.68,10.68,0,0,1-1-13.69c4-5.35,10.07-6.4,15.72-2.78C1004.06,419.48,1005.83,420.35,1007.54,421.3Z" transform="matrix(1, 0, 0, 1, -653, -367)"/>
  <path class="cls-2" d="M1054.15,496.8c1.41,1.39-.88,2.86.8,4.13,1.36.39,2.07-.53,2.31-1.88.65-3.65,3.18-4.06,6.17-3.64s2.89,2.95,3.24,5.08a19.37,19.37,0,0,1,0,2.95c-1.83,2.07-3.35.66-5.07-.85-1.86,3.35-4.28,5.81-8.11,4.21-2.7-1.13-2.4-4.12-2.72-6.5C1050.43,497.72,1052.92,497.87,1054.15,496.8Z" transform="matrix(1, 0, 0, 1, -653, -367)"/>
  <path class="cls-2" d="M983.64,627.14c3.18,6.54,2.27,14.14,7.11,19.94l-8.58,2.57c2.65-5.89-1.1-10.72-2.16-15.89-.35-1.72-1.89-1.64-3.78-1.26C978.48,630.09,980.58,628.23,983.64,627.14Z" transform="matrix(1, 0, 0, 1, -653, -367)"/>
  <path class="cls-2" d="M922.75,629.24c8.69-1.35,8.71-1.34,6.13,6.66-.81,2.49-1.79,4.92-2.71,7.38-.77,2.06-1.89,4.08.27,6.74-3.7-1.28-6.6-2-9.23-3.65C921.66,644.4,925.36,632.75,922.75,629.24Z" transform="matrix(1, 0, 0, 1, -653, -367)"/>
  <path class="cls-2" d="M919.52,413.56c4.21-2.56,5.82-1.82,6.88,3.22A84.72,84.72,0,0,0,931,432.29c-1.5,1.89-3.69,1.86-6,2A72.87,72.87,0,0,0,919.52,413.56Z" transform="matrix(1, 0, 0, 1, -653, -367)"/>
  <path class="cls-2" d="M872.45,471.92c-2-.12-2.46-1.53-3.85-2.6a14.75,14.75,0,0,0,3-.22c1-.29,1.9-.93,1.59-2.15a1.61,1.61,0,0,0-2.37-1.06c-1.56.61-3.18.44-4.78.54a4.08,4.08,0,0,1-4.48-4.33c.24-2.29,1.66-5.24,4.7-5.58,2.62-.29,2.58,2,2.3,4,2.72.3,5.66-.79,7.37,2.29,1.15,2.06,1.83,3.63-.58,5.31C874.06,469.09,872.56,470.09,872.45,471.92Z" transform="matrix(1, 0, 0, 1, -653, -367)"/>
  <path class="cls-2" d="M898.59,446.85a11.16,11.16,0,0,1-6,2.94c-1.11-4.12-3.91-7.13-6.65-10.34-1.49-1.75-2.2-4.28-3.85-6.2-.76-.88-.08-2.51,1.35-3,1.86-.6,3.1.48,4,2C890.47,437.58,894.47,442.2,898.59,446.85Z" transform="matrix(1, 0, 0, 1, -653, -367)"/>
  <path class="cls-2" d="M970.68,428c-1,2.61-3.07,3.29-5.68,2.78a5.59,5.59,0,0,1-4.66-5.16c-.91-6.38,2.23-10.38,7.44-9.74a4.66,4.66,0,0,1,4,2.91c.53,1.16,1.08,2.34.36,3.55s-2,.56-3.07.5c-1.48-.08-3.11-.48-4,1.13a2.65,2.65,0,0,0,.53,3.14A3.86,3.86,0,0,0,970.68,428Z" transform="matrix(1, 0, 0, 1, -653, -367)"/>
  <path class="cls-2" d="M861.72,483.82c-4,.09-9.53-4.66-9.42-8.13.07-2.13,4.86-6.38,7.25-6.44,3.92-.1,8.56,4.05,8.52,7.62S864.88,483.74,861.72,483.82Zm4.16-3.84c.14-3.23-7.34-8.78-10.21-7.54-1.25.54-1.08,1.47-.59,2.46C856.52,477.79,862.49,480.6,865.88,480Z" transform="matrix(1, 0, 0, 1, -653, -367)"/>
  <path class="cls-2" d="M1049.6,475.37c-1.36-1.88,1.89-4.67-1-5.4-2.69-.69-4.11,2.38-5.73,4-2,2,.21,3.5,1.52,4.92.17.17.31.37.47.55-4.3.57-7.87-3.67-6.12-7.68a9.32,9.32,0,0,1,7.33-5.72c3-.46,5.15.6,6.92,3.2,1.06,1.55,1.45,2.94.71,4.44A3.09,3.09,0,0,1,1049.6,475.37Z" transform="matrix(1, 0, 0, 1, -653, -367)"/>
  <path class="cls-2" d="M1008.65,444.82c-2,.22-3.19-1.1-4.74-2.27,3.62-5.84,7.3-11.56,10.38-17.62,4.47.74,4.55,1.12,2.4,5C1014,434.8,1010.5,439.24,1008.65,444.82Z" transform="matrix(1, 0, 0, 1, -653, -367)"/>
  <path class="cls-2" d="M1011.45,447c2.61-3.57,5.14-7.16,7.83-10.41,1.44-1.73,3.4-4.07,5.88-5.15,1.79-.79,2.78.28,3.54,1.81-1,1-2.23,1.06-3.42,1.26-1.86.3-3.06.91-2.31,3.21.61,1.85-1.1,2.94-2,4.19-1.83,2.63-4,5-5,8.43C1014.2,449.42,1012.54,448.66,1011.45,447Z" transform="matrix(1, 0, 0, 1, -653, -367)"/>
  <path class="cls-2" d="M1031.56,464.56c5.41-1.16,6.83-8.15,13.56-8.23.88-.8.05-4.57,3.56-3.55a1.86,1.86,0,0,1,1.34,2.62c-1.13,2.69-3.2,1.27-5.41.74,1.09,4.31-1.94,5.84-4.37,7.79-2,1.63-4.33,3-5.27,6A13,13,0,0,1,1031.56,464.56Z" transform="matrix(1, 0, 0, 1, -653, -367)"/>
  <path class="cls-2" d="M910.64,640.17c-1.71-.59-2.9-1.44-2.7-3.22a2.13,2.13,0,0,1,2.59-2,2.56,2.56,0,0,1,2.54,2.63C913.07,639.3,911.79,639.74,910.64,640.17Z" transform="matrix(1, 0, 0, 1, -653, -367)"/>
  <path class="cls-2" d="M996.89,639.49c-1.42,0-2.42-.52-2.49-2.08a2.39,2.39,0,0,1,2.33-2.77c1.54-.15,2.7.52,2.72,2.25S998.43,639.29,996.89,639.49Z" transform="matrix(1, 0, 0, 1, -653, -367)"/>
  <path class="cls-2" d="M947.94,599.57a12.5,12.5,0,0,1,0-1.5c.72-5.64-.94-9.84-5.31-14.05-9.75-9.39-8.53-26.28,2-36.71,1.9-1.88,2.27-3,.68-5.23-3.16-4.42-6.76-8.82-4.88-15a1.52,1.52,0,0,0-1.06-1.8c-3.19-.7-4.15-3.49-5.39-5.83-4.29-8.07-10.38-15-15-22.83-.71-1.22-1.71-2.29-1.1-3.72.68-1.61,2.29-1.18,3.6-1.22,7.49-.19,7.55-.17,8.78-7.39,1.07-6.22,2.38-12.54,6.85-17.09,3.7-3.77,7.33-7.25,9.82-12.09,2-3.92,6.5-4.5,10.62-3.79,3.84.66,6.72,3.07,7.43,7,.83,4.63,3.83,7.65,6.84,10.78,3.25,3.38,5.26,7.55,7.29,11.68,1.3,2.64,1.56,5.08-2.25,5.89a16.85,16.85,0,0,0-2.06.89c-1.12.42-2.14.95-1.94,2.35.24,1.64,1.58,1.71,2.86,1.72,4.12,0,8.25-.06,12.37,0,3.64.09,4.4,1.41,3,4.75A45.87,45.87,0,0,1,984,507.37a4.65,4.65,0,0,0-1.23,4.45c2.86,9.93-1.26,18-6.87,25.61a88.39,88.39,0,0,1-12,12.85c-4.11,3.73-4.16,4.86-.27,8.74s7.46,8.1,7.57,14.1c.13,6.42-3.17,11.19-7.62,15.24a7.78,7.78,0,0,0-3,6.78c.25,4.23,0,8.49.09,12.74.1,3.45-1.36,5-4.85,5.1-7.08.16-8-.63-7.95-7.79ZM957.05,544q0-30.54,0-61.1a12.77,12.77,0,0,0-.21-3c-.31-1.31-1.42-1.64-2.63-1.56a2,2,0,0,0-2.09,1.76,21.25,21.25,0,0,0-.08,3v120c0,1.25,0,2.5.06,3.74A2.44,2.44,0,0,0,957,607a31.53,31.53,0,0,0,.1-3.37Q957.07,573.82,957.05,544Zm-1.17-79.77c0,2.78,0,5,0,7.21,0,1.26.18,2.47,1.74,2.92a15.93,15.93,0,0,1,6,3.68c2.62,2.27,4.27-.33,6.09-1.54,1.12-.74,2.38-1.82,1.2-3.35C967.2,468.36,962.69,464.88,955.88,464.24Zm-3.29,5.06c.13-5.87-.59-6.38-5.6-4.59-4.74,1.68-7.91,5-10.09,9.42-.55,1.12-1,2.23.22,3.36a5.64,5.64,0,0,0,8-.12c1-.95,1.9-2.25,3.28-2.36C952.56,474.67,953.14,472.14,952.59,469.3ZM948,549.8c-5.15,2.43-9.86,13.11-8.36,18a1.77,1.77,0,0,0,1.51,1.43c1.19.16,1.83-.53,2.24-1.55.69-1.73,1-3.79,2.18-5.1C948.9,558.8,948.13,554.54,948,549.8Zm-9.62-57.94c1.67-.44,4.48,1.14,4.24-2.75-.31-5-3.21-9.21-6.62-8.13s-2.14,5-2.49,7.75C933,492.81,936.2,491.58,938.38,491.86Zm27.41,44.44c2.4,4.39,3.2,4.49,6.27.67,1-1.26,2-2.57,2.89-3.9,2.58-3.75,2.32-4.5-2.32-6.4Zm-5.1-.15a25.25,25.25,0,0,0,8.92-10.82c-2.37-1.11-4.37-.49-6.29-.65s-2.7.74-2.64,2.64C960.75,529.86,960.69,532.41,960.69,536.15Zm.9-74.62c0-4.43-1.76-6.55-5.24-6.89-4.33-.42-7.08,1.48-7.86,5.93C952.85,460.2,957.14,460,961.59,461.53Zm18.78,52.9c-.62-.17-1.3-.89-2.22-.22-1.14.83-3.8,8-3.47,9.43.37,1.6,1.6,1.93,3,2.21,1.9.39,2.06-1.53,2.13-2.21C980,520.6,981.34,517.62,980.37,514.43Zm5.87-18.19c-.46-.25-.78-.58-1.1-.58-7.34-.07-14.68-.1-22-.13-1.06,0-2.18.24-2.23,1.47s1.13,1.47,2.15,1.47q10.28,0,20.55,0C984.88,498.52,986.08,498.26,986.24,496.24Zm-62.32-.56c1.54,3.37,20.76,4,23.83.55A190,190,0,0,0,923.92,495.68Zm52.74,12.94c-4.68,0-9.16,0-13.63,0-1,0-2.18-.13-2.27,1.3s1,1.82,2.25,1.82c3.62,0,7.24.05,10.86,0C975.53,511.78,976.83,511.25,976.66,508.62ZM973.11,478c-1.76,2-5.24,2.1-5.27,5.54,0,1.06.81,2.53,2,2.31,2.15-.39,4.76-1,5.78-2.88S975,479.34,973.11,478ZM933,508.6c-.33,2.41,1,3.09,2.58,3.15,3.36.11,6.73.05,10.09,0,1.21,0,2.36-.32,2.26-1.82-.1-1.35-1.3-1.33-2.28-1.34C941.5,508.59,937.4,508.6,933,508.6Zm28.24,52.17c-1.71,5,1.38,7.64,3.49,10.58a2,2,0,0,0,2.37.58c1-.42,1-1.36.77-2.19A17.57,17.57,0,0,0,961.19,560.77Zm-23.57-44.54c1,4.7,2.68,5.62,8,4.89a2.42,2.42,0,0,0,2.42-2.7c0-1.69-.78-2.66-2.43-2.63C943,515.85,940.41,515.35,937.62,516.23Zm9.55,21.6c.63-2,1-10,.66-11.21a2.11,2.11,0,0,0-2.13-1.68,2.44,2.44,0,0,0-2.54,1.13C941.6,528.91,943.88,536,947.17,537.83ZM966.8,515.9c-1,0-2,0-3,0-1.67,0-2.93.55-2.94,2.51s1.21,2.52,2.9,2.53c1.36,0,2.72-.09,4.07,0,2.29.2,3.78-.93,3.88-3,.13-2.75-2.3-1.81-3.84-2.05A8.2,8.2,0,0,0,966.8,515.9Zm-5.94-29.09c0,1.71-.3,3.5,1.38,4.48a2.58,2.58,0,0,0,3.14-.16c1.69-1.59.33-3.24-.16-4.8-.44-1.36-.84-3.19-2.71-3C960.38,483.57,961.07,485.56,960.86,486.81Z" transform="matrix(1, 0, 0, 1, -653, -367)"/>
</svg>